<?xml version="1.0" encoding="UTF-8"?>
<svg version="1.1" viewBox="0 0 1376 944" width="1280" height="1280" xmlns="http://www.w3.org/2000/svg">
<path transform="translate(1290,633)" d="m0 0h48l-2 6-20 47-2 2-69-1-774-16-374-8-71-2v-1l24-1 121-2 90-2 60-1 547-12 192-4 99-2 70-2z" fill="#fff"/>
<path transform="translate(1339,519)" d="m0 0h2l-1 6-11 29-2 2h-45l-331-5-531-8-78-2-36-1v-1l48-1 77-1 824-16 62-1z" fill="#fff"/>
<path transform="translate(1353,374)" d="m0 0h3l-1 4-14 23-7 11h-55l-639-11-92-2 4-2 203-6 495-14z" fill="#fff"/>
<path transform="translate(23,660)" d="m0 0 2 1z" fill="#fff"/>
</svg>
